<svg width="20" height="20" viewBox="0 0 20 20" fill="none" xmlns="http://www.w3.org/2000/svg">
<path d="M9.88281 1.6084C7.62847 1.6084 5.46646 2.50393 3.87241 4.09799C2.27835 5.69205 1.38281 7.85406 1.38281 10.1084C1.38281 12.3627 2.27835 14.5247 3.87241 16.1188C5.46646 17.7129 7.62847 18.6084 9.88281 18.6084C10.999 18.6084 12.1044 18.3885 13.1356 17.9614C14.1669 17.5342 15.1039 16.9081 15.8932 16.1188C16.6825 15.3295 17.3086 14.3925 17.7358 13.3612C18.163 12.3299 18.3828 11.2246 18.3828 10.1084C18.3828 7.85406 17.4873 5.69205 15.8932 4.09799C14.2992 2.50393 12.1372 1.6084 9.88281 1.6084ZM9.88281 0.608398C12.4024 0.608398 14.8187 1.60929 16.6003 3.39088C18.3819 5.17248 19.3828 7.58884 19.3828 10.1084C19.3828 12.628 18.3819 15.0443 16.6003 16.8259C14.8187 18.6075 12.4024 19.6084 9.88281 19.6084C7.36326 19.6084 4.94689 18.6075 3.1653 16.8259C1.3837 15.0443 0.382813 12.628 0.382812 10.1084C0.382813 7.58884 1.3837 5.17248 3.1653 3.39088C4.94689 1.60929 7.36326 0.608398 9.88281 0.608398ZM9.38281 14.6084H10.3828V16.6084H9.38281V14.6084ZM9.88281 3.6084C10.8111 3.6084 11.7013 3.97715 12.3577 4.63352C13.0141 5.2899 13.3828 6.18014 13.3828 7.1084C13.3828 8.0084 12.6828 8.6084 11.9428 9.2884L11.0128 10.1884C10.4228 10.8584 10.3528 12.1384 10.3828 12.5784V12.6084H9.38281C9.38281 12.5584 9.28281 10.6484 10.2528 9.5284L11.2828 8.5384C11.8828 8.0084 12.3828 7.5584 12.3828 7.1084C12.3828 6.44536 12.1194 5.80947 11.6506 5.34063C11.1817 4.87179 10.5459 4.6084 9.88281 4.6084C9.21977 4.6084 8.58389 4.87179 8.11505 5.34063C7.6462 5.80947 7.38281 6.44536 7.38281 7.1084H6.38281C6.38281 6.18014 6.75156 5.2899 7.40794 4.63352C8.06432 3.97715 8.95455 3.6084 9.88281 3.6084Z" fill="black"/>
</svg>
