<svg width="16" height="19" viewBox="0 0 16 19" fill="none" xmlns="http://www.w3.org/2000/svg">
<path d="M9.78905 1.20526C9.55595 0.964539 9.27685 0.773132 8.96832 0.642414C8.65979 0.511696 8.32813 0.444336 7.99305 0.444336C7.65797 0.444336 7.32631 0.511696 7.01777 0.642414C6.70924 0.773132 6.43014 0.964539 6.19705 1.20526L1.39805 6.16126C1.12305 6.44526 0.938047 6.80526 0.866047 7.19526C0.283331 10.3733 0.240397 13.6269 0.739047 16.8193L0.915047 17.9493C0.971047 18.3063 1.27905 18.5693 1.64005 18.5693H4.99305C5.12566 18.5693 5.25283 18.5166 5.3466 18.4228C5.44037 18.329 5.49305 18.2019 5.49305 18.0693V11.0693H10.493V18.0693C10.493 18.2019 10.5457 18.329 10.6395 18.4228C10.7333 18.5166 10.8604 18.5693 10.993 18.5693H14.346C14.5208 18.5692 14.6898 18.5067 14.8226 18.393C14.9553 18.2793 15.0431 18.1219 15.07 17.9493L15.247 16.8193C15.7456 13.6269 15.7027 10.3733 15.12 7.19526C15.0484 6.80553 14.8629 6.44575 14.587 6.16126L9.78905 1.20526Z" fill="black"/>
</svg>
