<svg width="18" height="18" viewBox="0 0 18 18" fill="none" xmlns="http://www.w3.org/2000/svg">
<path d="M15.2819 6.75616C15.6422 6.7633 15.9972 6.84676 16.3232 7.00124C16.664 7.16271 16.9648 7.39777 17.2038 7.68947C17.4428 7.98117 17.6141 8.32226 17.7055 8.68816C17.7968 9.05397 17.8068 9.43556 17.7329 9.80546L17.6839 9.79566L17.7329 9.80547L16.5329 15.8055C16.4173 16.3837 16.105 16.9039 15.649 17.2777C15.193 17.6516 14.6215 17.8558 14.0319 17.8557H2.67188C2.337 17.8557 2.00541 17.7897 1.69603 17.6616C1.38665 17.5334 1.10554 17.3456 0.868753 17.1088C0.631963 16.872 0.444132 16.5909 0.315982 16.2815C0.187833 15.9721 0.121875 15.6405 0.121875 15.3057V7.30566C0.121875 7.15979 0.179821 7.0199 0.282966 6.91675C0.386111 6.81361 0.526006 6.75566 0.671875 6.75566H4.60187C4.84057 6.75565 5.07558 6.6967 5.28603 6.58405C5.49648 6.47141 5.67587 6.30855 5.80827 6.10993L5.80828 6.10992L8.29621 2.37901L8.29553 2.37856L8.32327 2.33694C8.64748 1.85046 9.08681 1.45158 9.60225 1.17572C10.1033 0.90758 10.6611 0.763747 11.2289 0.755995V0.755664H11.2768C11.2772 0.755664 11.2775 0.755664 11.2779 0.755664H11.2789H11.4919H11.4919C11.717 0.755743 11.9394 0.804849 12.1436 0.899569C12.3478 0.994289 12.5289 1.13235 12.6743 1.30415C12.8198 1.47595 12.9261 1.67737 12.9858 1.8944C13.0455 2.11143 13.0573 2.33887 13.0202 2.5609M15.2819 6.75616L12.9791 2.50335L12.9791 2.50335L12.9709 2.55266M15.2819 6.75616C15.2656 6.75584 15.2492 6.75567 15.2329 6.75566H15.2819V6.75616ZM13.0202 2.5609L12.9709 2.55266M13.0202 2.5609L13.0202 2.56089L12.9709 2.55266M13.0202 2.5609L12.3209 6.75566M12.9709 2.55266L12.2702 6.75566H12.3209M12.3209 6.75566L12.3126 6.80566H12.2619H15.1819H15.1829V6.80561L15.1829 6.75566M12.3209 6.75566H15.1829M1.22187 7.85566V15.3057C1.22187 15.6902 1.37464 16.059 1.64657 16.331C1.9185 16.6029 2.28731 16.7557 2.67188 16.7557H14.0319H14.0319C14.3673 16.7559 14.6925 16.6399 14.9519 16.4273C15.2114 16.2147 15.3891 15.9188 15.4548 15.5899L16.6548 9.58986C16.6969 9.37965 16.6908 9.16258 16.6388 8.9543C16.5868 8.74617 16.4893 8.55217 16.3532 8.38628C16.2172 8.22039 16.0461 8.08675 15.8522 7.99499C15.6583 7.90324 15.4464 7.85565 15.2319 7.85566H11.6719H11.6719C11.592 7.85563 11.5131 7.83821 11.4407 7.80462C11.3683 7.77103 11.304 7.72208 11.2524 7.66116C11.2008 7.60024 11.1631 7.52882 11.1419 7.45185C11.1207 7.37488 11.1165 7.29422 11.1296 7.21546L11.1296 7.21544L11.9356 2.37944L11.9404 2.3501L1.22187 7.85566ZM1.22187 7.85566H4.60187C5.02163 7.85567 5.4349 7.75206 5.805 7.55402C6.1751 7.35598 6.49059 7.06963 6.72347 6.7204L6.72348 6.72039L9.23847 2.9464C9.23848 2.9464 9.23848 2.9464 9.23848 2.94639L1.22187 7.85566ZM15.1829 6.75566H15.2319L15.1829 6.75563V6.75566ZM11.5419 0.806515V0.805664H11.4919C11.5086 0.80567 11.5252 0.805954 11.5419 0.806515ZM11.3279 0.805664H11.2789V0.855664V1.75566V1.80566H11.3269V1.80571L11.3268 1.85566L11.2789 1.85566H11.2769C11.2768 1.85566 11.2768 1.85566 11.2768 1.85566H11.2289V1.80612C11.2448 1.80582 11.2608 1.80566 11.2768 1.80566C11.2768 1.80566 11.2768 1.80566 11.2768 1.80566C11.2769 1.80566 11.2769 1.80566 11.2769 1.80566L11.2778 0.855664C11.2778 0.855664 11.2779 0.855664 11.2779 0.855664L11.2779 0.805664C11.2779 0.805664 11.2779 0.805664 11.2778 0.805664L11.2289 0.805615V0.805664H11.3279ZM12.9216 2.5444C12.9216 2.54441 12.9216 2.54441 12.9216 2.54441L12.0342 2.39592L12.0342 2.39588L11.9858 2.38783L11.9849 2.38766L11.9767 2.43682L12.9216 2.5444Z" fill="black" stroke="black" stroke-width="0.1"/>
<path d="M4.67188 7.30566V17.3057" stroke="black" stroke-width="1.5"/>
</svg>
