<svg width="22" height="22" viewBox="0 0 22 22" fill="none" xmlns="http://www.w3.org/2000/svg">
<path d="M1.66282 13.77C1.44982 15.164 2.40082 16.131 3.56482 16.613C8.02782 18.463 14.2378 18.463 18.7008 16.613C19.8648 16.131 20.8158 15.163 20.6028 13.77C20.4728 12.913 19.8258 12.2 19.3468 11.503C18.7198 10.579 18.6578 9.572 18.6568 8.5C18.6578 4.358 15.2898 1 11.1328 1C6.97582 1 3.60782 4.358 3.60782 8.5C3.60782 9.572 3.54582 10.58 2.91782 11.503C2.43982 12.2 1.79382 12.913 1.66282 13.77Z" stroke="black" stroke-width="1.5" stroke-linecap="round" stroke-linejoin="round"/>
<path d="M7.13281 18C7.59081 19.725 9.20881 21 11.1328 21C13.0578 21 14.6738 19.725 15.1328 18" stroke="black" stroke-width="1.5" stroke-linecap="round" stroke-linejoin="round"/>
</svg>
