<svg width="20" height="20" viewBox="0 0 20 20" fill="none" xmlns="http://www.w3.org/2000/svg">
<path fill-rule="evenodd" clip-rule="evenodd" d="M0.671875 8.84205C0.67199 7.48664 0.996239 6.15091 1.61757 4.94631C2.2389 3.7417 3.13929 2.70314 4.24363 1.91729C5.34797 1.13143 6.62422 0.62106 7.96592 0.428759C9.30762 0.236457 10.6758 0.3678 11.9565 0.811829C13.2371 1.25586 14.3929 1.9997 15.3276 2.98129C16.2623 3.96288 16.9487 5.15376 17.3295 6.45456C17.7103 7.75537 17.7745 9.12839 17.5168 10.4591C17.2591 11.7897 16.6868 13.0395 15.8479 14.1041L19.4999 17.7561C19.682 17.9447 19.7828 18.1973 19.7805 18.4595C19.7783 18.7216 19.6731 18.9725 19.4877 19.1579C19.3023 19.3433 19.0515 19.4484 18.7893 19.4507C18.5271 19.453 18.2745 19.3522 18.0859 19.17L14.4339 15.5181C13.1805 16.506 11.6743 17.1212 10.0876 17.2931C8.50093 17.4651 6.8979 17.1868 5.46197 16.4903C4.02604 15.7937 2.81523 14.7069 1.96811 13.3544C1.12098 12.0018 0.671768 10.438 0.671875 8.84205ZM9.17188 4.34205C8.90666 4.34205 8.6523 4.44741 8.46477 4.63494C8.27723 4.82248 8.17188 5.07683 8.17188 5.34205C8.17188 5.60727 8.27723 5.86162 8.46477 6.04916C8.6523 6.23669 8.90666 6.34205 9.17188 6.34205C9.83492 6.34205 10.4708 6.60544 10.9396 7.07428C11.4085 7.54312 11.6719 8.17901 11.6719 8.84205C11.6719 9.10727 11.7772 9.36162 11.9648 9.54916C12.1523 9.73669 12.4067 9.84205 12.6719 9.84205C12.9371 9.84205 13.1914 9.73669 13.379 9.54916C13.5665 9.36162 13.6719 9.10727 13.6719 8.84205C13.6719 7.64858 13.1978 6.50398 12.3539 5.66007C11.5099 4.81616 10.3653 4.34205 9.17188 4.34205Z" fill="black"/>
</svg>
