<svg width="20" height="20" viewBox="0 0 20 20" fill="none" xmlns="http://www.w3.org/2000/svg">
<path fill-rule="evenodd" clip-rule="evenodd" d="M11.627 0.151023C11.257 -0.000976607 10.787 -0.000976562 9.84797 -0.000976562C8.90897 -0.000976562 8.43997 -0.000976607 8.06897 0.151023C7.57642 0.353234 7.18435 0.742789 6.97897 1.23402C6.88497 1.45702 6.84897 1.71802 6.83397 2.09702C6.8273 2.37163 6.7507 2.63999 6.61142 2.87674C6.47213 3.11349 6.27476 3.31081 6.03797 3.45002C5.79672 3.58413 5.52552 3.65517 5.2495 3.65657C4.97348 3.65797 4.70157 3.58968 4.45897 3.45802C4.12097 3.28002 3.87597 3.18202 3.63397 3.15002C3.10453 3.08051 2.56904 3.22282 2.14397 3.54602C1.82597 3.78802 1.59097 4.19202 1.12197 4.99902C0.651972 5.80602 0.417972 6.20902 0.364972 6.60402C0.294972 7.13002 0.438972 7.66202 0.764972 8.08302C0.912972 8.27502 1.12197 8.43602 1.44497 8.63802C1.92197 8.93502 2.22797 9.44102 2.22797 9.99902C2.22797 10.557 1.92197 11.063 1.44597 11.359C1.12197 11.562 0.912972 11.723 0.763972 11.915C0.603055 12.123 0.484941 12.3607 0.416456 12.6146C0.347971 12.8685 0.330473 13.1334 0.364972 13.394C0.417972 13.788 0.651972 14.192 1.12197 14.999C1.59197 15.806 1.82597 16.209 2.14397 16.452C2.56797 16.775 3.10397 16.917 3.63397 16.848C3.87597 16.816 4.12097 16.718 4.45897 16.54C4.7017 16.4082 4.97379 16.3398 5.25 16.3412C5.52621 16.3426 5.79759 16.4137 6.03897 16.548C6.52497 16.828 6.81297 17.343 6.83397 17.901C6.84897 18.281 6.88497 18.541 6.97897 18.764C7.18297 19.254 7.57497 19.644 8.06897 19.847C8.43897 19.999 8.90897 19.999 9.84797 19.999C10.787 19.999 11.257 19.999 11.627 19.847C12.1195 19.6448 12.5116 19.2553 12.717 18.764C12.811 18.541 12.847 18.281 12.862 17.901C12.882 17.343 13.171 16.827 13.658 16.548C13.8992 16.4139 14.1704 16.3429 14.4464 16.3415C14.7225 16.3401 14.9944 16.4084 15.237 16.54C15.575 16.718 15.82 16.816 16.062 16.848C16.592 16.918 17.128 16.775 17.552 16.452C17.87 16.21 18.105 15.806 18.574 14.999C19.044 14.192 19.278 13.789 19.331 13.394C19.3653 13.1333 19.3477 12.8683 19.279 12.6145C19.2104 12.3606 19.0921 12.1229 18.931 11.915C18.783 11.723 18.574 11.562 18.251 11.36C17.774 11.063 17.468 10.557 17.468 9.99902C17.468 9.44102 17.774 8.93502 18.25 8.63902C18.574 8.43602 18.783 8.27502 18.932 8.08302C19.0929 7.87508 19.211 7.63731 19.2795 7.38345C19.348 7.1296 19.3655 6.86468 19.331 6.60402C19.278 6.21002 19.044 5.80602 18.574 4.99902C18.104 4.19202 17.87 3.78902 17.552 3.54602C17.1269 3.22282 16.5914 3.08051 16.062 3.15002C15.82 3.18202 15.575 3.28002 15.237 3.45802C14.9942 3.58985 14.7222 3.65824 14.4459 3.65684C14.1697 3.65544 13.8984 3.5843 13.657 3.45002C13.4204 3.31068 13.2232 3.11332 13.0841 2.87657C12.945 2.63983 12.8685 2.37153 12.862 2.09702C12.847 1.71702 12.811 1.45702 12.717 1.23402C12.6153 0.990759 12.4667 0.769906 12.2797 0.584081C12.0927 0.398256 11.8709 0.251101 11.627 0.151023ZM9.84797 12.999C11.518 12.999 12.871 11.656 12.871 9.99902C12.871 8.34202 11.517 6.99902 9.84797 6.99902C8.17797 6.99902 6.82497 8.34202 6.82497 9.99902C6.82497 11.656 8.17897 12.999 9.84797 12.999Z" fill="black"/>
</svg>
