<svg width="15" height="18" viewBox="0 0 15 18" fill="none" xmlns="http://www.w3.org/2000/svg">
<path d="M12.9262 8.2C12.6962 7.9 12.4162 7.64 12.1562 7.38C11.4862 6.78 10.7262 6.35 10.0862 5.72C8.59616 4.26 8.26616 1.85 9.21616 0C8.26616 0.23 7.43616 0.75 6.72616 1.32C4.13616 3.4 3.11616 7.07 4.33616 10.22C4.37616 10.32 4.41616 10.42 4.41616 10.55C4.41616 10.77 4.26616 10.97 4.06616 11.05C3.83616 11.15 3.59616 11.09 3.40616 10.93C3.34941 10.8825 3.30194 10.8248 3.26616 10.76C2.13616 9.33 1.95616 7.28 2.71616 5.64C1.04616 7 0.136163 9.3 0.266163 11.47C0.326163 11.97 0.386163 12.47 0.556163 12.97C0.696163 13.57 0.966163 14.17 1.26616 14.7C2.34616 16.43 4.21616 17.67 6.22616 17.92C8.36616 18.19 10.6562 17.8 12.2962 16.32C14.1262 14.66 14.7662 12 13.8262 9.72L13.6962 9.46C13.4862 9 12.9262 8.2 12.9262 8.2ZM9.76616 14.5C9.48616 14.74 9.02616 15 8.66616 15.1C7.54616 15.5 6.42616 14.94 5.76616 14.28C6.95616 14 7.66616 13.12 7.87616 12.23C8.04616 11.43 7.72616 10.77 7.59616 10C7.47616 9.26 7.49616 8.63 7.76616 7.94C7.95616 8.32 8.15616 8.7 8.39616 9C9.16616 10 10.3762 10.44 10.6362 11.8C10.6762 11.94 10.6962 12.08 10.6962 12.23C10.7262 13.05 10.3662 13.95 9.76616 14.5Z" fill="black"/>
</svg>
