<svg width="22" height="15" viewBox="0 0 22 15" fill="none" xmlns="http://www.w3.org/2000/svg">
<path d="M13.0976 2.28726L13.1161 2.3337C13.6431 2.12361 14.2101 2.0325 14.7764 2.0669C15.3427 2.1013 15.8945 2.26034 16.3922 2.53268C16.89 2.80501 17.3214 3.18392 17.6557 3.64232C17.9901 4.10071 18.219 4.6273 18.3263 5.18444C18.4335 5.74158 18.4164 6.31553 18.2761 6.86529C18.1359 7.41505 17.8759 7.92704 17.5148 8.36469C17.1538 8.80234 16.7005 9.15485 16.1874 9.39703C15.6743 9.6392 15.1141 9.76508 14.5467 9.76565C14.3985 9.76566 14.2563 9.82456 14.1514 9.9294C14.0466 10.0342 13.9877 10.1764 13.9877 10.3247C13.9877 10.473 14.0466 10.6152 14.1514 10.7201C14.2563 10.8249 14.3985 10.8838 14.5468 10.8838H14.5468C15.6967 10.8825 16.8286 11.1691 17.8394 11.7173C18.8501 12.2655 19.7076 13.0579 20.3337 14.0224L20.3338 14.0225C20.415 14.1465 20.542 14.2332 20.687 14.2636C20.8319 14.294 20.983 14.2657 21.1071 14.1848M13.0976 2.28726L13.1165 2.33353C13.0483 2.36149 12.9751 2.37566 12.9013 2.37521C12.8275 2.37477 12.7546 2.35972 12.6866 2.33094C12.6187 2.30216 12.5571 2.26022 12.5055 2.20753C12.4538 2.15484 12.4131 2.09244 12.3857 2.02394C12.3582 1.95544 12.3446 1.88219 12.3457 1.80841C12.3467 1.73463 12.3623 1.66178 12.3916 1.59407C12.4209 1.52635 12.4633 1.46511 12.5164 1.41387C12.5695 1.36266 12.6322 1.32246 12.7008 1.29557C13.8705 0.829267 15.1736 0.824264 16.3469 1.28157C17.5202 1.7389 18.4763 2.6245 19.0219 3.75946C19.5675 4.89443 19.662 6.19417 19.2864 7.39613C18.9219 8.56244 18.141 9.55233 17.0948 10.1786C18.8124 10.7527 20.2861 11.8924 21.2737 13.413L21.2739 13.4133C21.3538 13.5378 21.3811 13.6889 21.3499 13.8335C21.3186 13.9781 21.2313 14.1044 21.1071 14.1848M13.0976 2.28726C13.6315 2.07444 14.2058 1.98215 14.7794 2.01699C15.3531 2.05183 15.912 2.21295 16.4162 2.48882C16.9204 2.76469 17.3575 3.1485 17.6961 3.61285C18.0348 4.0772 18.2667 4.61061 18.3754 5.17499C18.484 5.73936 18.4667 6.32076 18.3246 6.87765C18.1825 7.43455 17.9192 7.95318 17.5534 8.39651C17.1877 8.83984 16.7285 9.19692 16.2088 9.44224C15.689 9.68756 15.1215 9.81507 14.5468 9.81565L17.0318 10.1578C18.0862 9.53918 18.8735 8.54962 19.2386 7.38122C19.6105 6.19134 19.5169 4.90467 18.9768 3.78112C18.4367 2.65758 17.4903 1.78089 16.3288 1.32816C15.1672 0.875431 13.8772 0.880404 12.7192 1.34207C12.6566 1.36656 12.5995 1.40318 12.5512 1.44984C12.5028 1.4965 12.4642 1.55227 12.4375 1.61393C12.4108 1.67559 12.3966 1.74192 12.3957 1.8091C12.3947 1.87628 12.4071 1.94298 12.4321 2.00536C12.4571 2.06773 12.4941 2.12455 12.5412 2.17252C12.5882 2.2205 12.6443 2.2587 12.7061 2.2849C12.768 2.31111 12.8344 2.32481 12.9016 2.32521C12.9688 2.32562 13.0354 2.31272 13.0976 2.28726ZM21.1071 14.1848C21.1071 14.1848 21.1071 14.1848 21.1071 14.1848L21.0799 14.1428L21.1072 14.1847C21.1072 14.1847 21.1071 14.1847 21.1071 14.1848ZM1.28986 14.0242L1.28991 14.0241C1.91714 13.0597 2.77531 12.2673 3.7865 11.7187C4.7977 11.1701 5.92989 10.8828 7.08031 10.8828C8.23073 10.8828 9.36292 11.1701 10.3741 11.7187C11.3853 12.2673 12.2435 13.0597 12.8707 14.0241L12.8706 14.0242L12.8732 14.0276C12.9595 14.1383 13.0843 14.2124 13.2228 14.2353C13.3613 14.2582 13.5033 14.2281 13.6206 14.1512C13.738 14.0742 13.8221 13.9559 13.8563 13.8197C13.8904 13.6836 13.8721 13.5396 13.805 13.4164L13.8051 13.4163L13.803 13.413C12.8165 11.8932 11.3445 10.7536 9.6284 10.1787C10.5372 9.63619 11.25 8.81716 11.6616 7.84001C12.0877 6.8284 12.167 5.70421 11.8871 4.64281C11.6072 3.5814 10.9839 2.64249 10.1143 1.97253C9.24481 1.30258 8.17799 0.939258 7.08031 0.939258C5.98263 0.939258 4.91581 1.30258 4.04629 1.97253C3.17676 2.64249 2.55344 3.5814 2.27355 4.64281C1.99366 5.70421 2.07296 6.8284 2.49906 7.84001C2.91063 8.81713 3.62342 9.63613 4.53213 10.1786C2.81456 10.7527 1.34099 11.8924 0.35339 13.413C0.272357 13.5372 0.243961 13.6884 0.27445 13.8335C0.304943 13.9787 0.391837 14.1057 0.516017 14.1868C0.640197 14.2678 0.79149 14.2963 0.936615 14.2658C1.08174 14.2353 1.20881 14.1484 1.28986 14.0242ZM3.22739 5.91266C3.22741 5.15065 3.45337 4.40575 3.87673 3.77216C4.30009 3.13855 4.90183 2.64472 5.60586 2.3531C6.30989 2.06148 7.08458 1.98518 7.83198 2.13384C8.57937 2.28251 9.26589 2.64947 9.80473 3.18831C10.3436 3.72715 10.7105 4.41367 10.8592 5.16106C11.0079 5.90846 10.9316 6.68315 10.6399 7.38718C10.3483 8.09121 9.85449 8.69295 9.22088 9.11631C8.58729 9.53967 7.84239 9.76564 7.08038 9.76565C6.05891 9.76432 5.07966 9.35795 4.35737 8.63567C3.63509 7.91338 3.22872 6.93413 3.22739 5.91266Z" fill="black" stroke="black" stroke-width="0.1"/>
</svg>
