<svg width="22" height="18" viewBox="0 0 22 18" fill="none" xmlns="http://www.w3.org/2000/svg">
<path d="M18.1328 8.75C18.1328 9.01522 18.0275 9.26957 17.8399 9.45711C17.6524 9.64464 17.398 9.75 17.1328 9.75C16.8676 9.75 16.6132 9.64464 16.4257 9.45711C16.2382 9.26957 16.1328 9.01522 16.1328 8.75C16.1328 8.48478 16.2382 8.23043 16.4257 8.04289C16.6132 7.85536 16.8676 7.75 17.1328 7.75C17.398 7.75 17.6524 7.85536 17.8399 8.04289C18.0275 8.23043 18.1328 8.48478 18.1328 8.75Z" fill="black"/>
<path fill-rule="evenodd" clip-rule="evenodd" d="M9.07681 0H12.1888C14.0268 0 15.4828 1.19209e-07 16.6218 0.153C17.7938 0.311 18.7428 0.643 19.4918 1.391C20.4158 2.316 20.7108 3.554 20.8178 5.161C21.3948 5.414 21.8308 5.951 21.8778 6.631C21.8828 6.692 21.8828 6.757 21.8828 6.817V10.683C21.8828 10.743 21.8828 10.808 21.8788 10.868C21.8308 11.548 21.3948 12.086 20.8178 12.34C20.7108 13.946 20.4158 15.184 19.4918 16.109C18.7428 16.857 17.7938 17.189 16.6218 17.347C15.4818 17.5 14.0268 17.5 12.1888 17.5H9.07681C7.23881 17.5 5.78281 17.5 4.64381 17.347C3.47181 17.189 2.52281 16.857 1.77381 16.109C1.02581 15.36 0.693813 14.411 0.535812 13.239C0.382812 12.099 0.382812 10.644 0.382812 8.806V8.694C0.382812 6.856 0.382812 5.4 0.535812 4.261C0.693813 3.089 1.02581 2.14 1.77381 1.391C2.52281 0.643 3.47181 0.311 4.64381 0.153C5.78381 1.19209e-07 7.23881 0 9.07681 0ZM19.3008 12.5H17.3628C15.2178 12.5 13.3818 10.872 13.3818 8.75C13.3818 6.628 15.2178 5 17.3618 5H19.2998C19.1858 3.659 18.9288 2.95 18.4298 2.452C18.0068 2.029 17.4268 1.775 16.4208 1.64C15.3938 1.502 14.0388 1.5 12.1318 1.5H9.13181C7.22481 1.5 5.87081 1.502 4.84181 1.64C3.83681 1.775 3.25681 2.029 2.83381 2.452C2.41081 2.875 2.15681 3.455 2.02181 4.461C1.88381 5.489 1.88181 6.843 1.88181 8.75C1.88181 10.657 1.88381 12.012 2.02181 13.04C2.15681 14.045 2.41081 14.625 2.83381 15.048C3.25681 15.471 3.83681 15.725 4.84281 15.86C5.87081 15.998 7.22481 16 9.13181 16H12.1318C14.0388 16 15.3938 15.998 16.4218 15.86C17.4268 15.725 18.0068 15.471 18.4298 15.048C18.9288 14.55 19.1868 13.842 19.3008 12.5ZM4.38281 4.75C4.38281 4.55109 4.46183 4.36032 4.60248 4.21967C4.74313 4.07902 4.9339 4 5.13281 4H9.13281C9.33172 4 9.52249 4.07902 9.66314 4.21967C9.80379 4.36032 9.88281 4.55109 9.88281 4.75C9.88281 4.94891 9.80379 5.13968 9.66314 5.28033C9.52249 5.42098 9.33172 5.5 9.13281 5.5H5.13281C4.9339 5.5 4.74313 5.42098 4.60248 5.28033C4.46183 5.13968 4.38281 4.94891 4.38281 4.75ZM20.0568 6.5H17.3628C15.9388 6.5 14.8818 7.559 14.8818 8.75C14.8818 9.941 15.9388 11 17.3618 11H20.0798C20.2858 10.987 20.3748 10.848 20.3818 10.764V6.736C20.3748 6.652 20.2858 6.513 20.0798 6.501L20.0568 6.5Z" fill="black"/>
</svg>
